<svg width="32" height="32" viewBox="0 0 100 100" fill="none" xmlns="http://www.w3.org/2000/svg">
  <!-- Central node - represents knowledge/core -->
  <circle cx="50" cy="50" r="12" fill="url(#gradient1)" />
  
  <!-- Connected nodes - represents knowledge network -->
  <circle cx="30" cy="30" r="8" fill="url(#gradient2)" />
  <circle cx="70" cy="30" r="8" fill="url(#gradient2)" />
  <circle cx="30" cy="70" r="8" fill="url(#gradient2)" />
  <circle cx="70" cy="70" r="8" fill="url(#gradient2)" />
  <circle cx="20" cy="50" r="7" fill="url(#gradient2)" />
  <circle cx="80" cy="50" r="7" fill="url(#gradient2)" />
  <circle cx="50" cy="20" r="7" fill="url(#gradient2)" />
  <circle cx="50" cy="80" r="7" fill="url(#gradient2)" />
  
  <!-- Connection lines - represents relationships -->
  <line x1="50" y1="50" x2="30" y2="30" stroke="url(#gradient3)" stroke-width="2" />
  <line x1="50" y1="50" x2="70" y2="30" stroke="url(#gradient3)" stroke-width="2" />
  <line x1="50" y1="50" x2="30" y2="70" stroke="url(#gradient3)" stroke-width="2" />
  <line x1="50" y1="50" x2="70" y2="70" stroke="url(#gradient3)" stroke-width="2" />
  <line x1="50" y1="50" x2="20" y2="50" stroke="url(#gradient3)" stroke-width="2" />
  <line x1="50" y1="50" x2="80" y2="50" stroke="url(#gradient3)" stroke-width="2" />
  <line x1="50" y1="50" x2="50" y2="20" stroke="url(#gradient3)" stroke-width="2" />
  <line x1="50" y1="50" x2="50" y2="80" stroke="url(#gradient3)" stroke-width="2" />
  
  <!-- Additional connections between outer nodes -->
  <line x1="30" y1="30" x2="70" y2="30" stroke="url(#gradient4)" stroke-width="1.5" opacity="0.6" />
  <line x1="30" y1="70" x2="70" y2="70" stroke="url(#gradient4)" stroke-width="1.5" opacity="0.6" />
  <line x1="30" y1="30" x2="30" y2="70" stroke="url(#gradient4)" stroke-width="1.5" opacity="0.6" />
  <line x1="70" y1="30" x2="70" y2="70" stroke="url(#gradient4)" stroke-width="1.5" opacity="0.6" />
  
  <!-- Gradients -->
  <defs>
    <linearGradient id="gradient1" x1="0%" y1="0%" x2="100%" y2="100%">
      <stop offset="0%" stop-color="#667eea" />
      <stop offset="100%" stop-color="#764ba2" />
    </linearGradient>
    <linearGradient id="gradient2" x1="0%" y1="0%" x2="100%" y2="100%">
      <stop offset="0%" stop-color="#764ba2" />
      <stop offset="100%" stop-color="#667eea" />
    </linearGradient>
    <linearGradient id="gradient3" x1="0%" y1="0%" x2="100%" y2="100%">
      <stop offset="0%" stop-color="#667eea" stop-opacity="0.8" />
      <stop offset="100%" stop-color="#764ba2" stop-opacity="0.4" />
    </linearGradient>
    <linearGradient id="gradient4" x1="0%" y1="0%" x2="100%" y2="100%">
      <stop offset="0%" stop-color="#667eea" stop-opacity="0.4" />
      <stop offset="100%" stop-color="#764ba2" stop-opacity="0.2" />
    </linearGradient>
  </defs>
</svg>

